<mxfile host="app.diagrams.net" agent="Mozilla/5.0 (Windows NT 10.0; Win64; x64) AppleWebKit/537.36 (KHTML, like Gecko) Chrome/132.0.0.0 Safari/537.36" version="24.9.3">
  <diagram name="PÃ¡gina-1" id="roKfRNkJJLgw11MZXrfT">
    <mxGraphModel dx="1859" dy="493" grid="1" gridSize="10" guides="1" tooltips="1" connect="1" arrows="1" fold="1" page="1" pageScale="1" pageWidth="827" pageHeight="1169" math="0" shadow="0">
      <root>
        <mxCell id="0" />
        <mxCell id="1" parent="0" />
        <mxCell id="-9K4hsrEqOnpqYFPlQaA-21" value="" style="ellipse;whiteSpace=wrap;html=1;" vertex="1" parent="1">
          <mxGeometry x="804" y="205" width="94" height="50" as="geometry" />
        </mxCell>
        <mxCell id="-9K4hsrEqOnpqYFPlQaA-1" value="nombre" style="ellipse;whiteSpace=wrap;html=1;" vertex="1" parent="1">
          <mxGeometry x="76" y="80" width="84" height="40" as="geometry" />
        </mxCell>
        <mxCell id="-9K4hsrEqOnpqYFPlQaA-2" value="email" style="ellipse;whiteSpace=wrap;html=1;" vertex="1" parent="1">
          <mxGeometry x="180" y="60" width="84" height="40" as="geometry" />
        </mxCell>
        <mxCell id="-9K4hsrEqOnpqYFPlQaA-3" value="Persona" style="rounded=0;whiteSpace=wrap;html=1;" vertex="1" parent="1">
          <mxGeometry x="160" y="140" width="100" height="50" as="geometry" />
        </mxCell>
        <mxCell id="-9K4hsrEqOnpqYFPlQaA-4" value="Boleto" style="rounded=0;whiteSpace=wrap;html=1;" vertex="1" parent="1">
          <mxGeometry x="670" y="135" width="100" height="50" as="geometry" />
        </mxCell>
        <mxCell id="-9K4hsrEqOnpqYFPlQaA-5" value="nombres" style="ellipse;whiteSpace=wrap;html=1;" vertex="1" parent="1">
          <mxGeometry x="50" y="10" width="84" height="40" as="geometry" />
        </mxCell>
        <mxCell id="-9K4hsrEqOnpqYFPlQaA-6" value="apellidoPaterno" style="ellipse;whiteSpace=wrap;html=1;" vertex="1" parent="1">
          <mxGeometry x="-30" y="60" width="84" height="40" as="geometry" />
        </mxCell>
        <mxCell id="-9K4hsrEqOnpqYFPlQaA-7" value="apellidoMaterno" style="ellipse;whiteSpace=wrap;html=1;" vertex="1" parent="1">
          <mxGeometry x="-20" y="120" width="84" height="40" as="geometry" />
        </mxCell>
        <mxCell id="-9K4hsrEqOnpqYFPlQaA-8" value="domicilio" style="ellipse;whiteSpace=wrap;html=1;" vertex="1" parent="1">
          <mxGeometry x="40" y="180" width="84" height="40" as="geometry" />
        </mxCell>
        <mxCell id="-9K4hsrEqOnpqYFPlQaA-9" value="fechaNacimiento" style="ellipse;whiteSpace=wrap;html=1;" vertex="1" parent="1">
          <mxGeometry x="282" y="85" width="96" height="40" as="geometry" />
        </mxCell>
        <mxCell id="-9K4hsrEqOnpqYFPlQaA-10" value="edad" style="ellipse;whiteSpace=wrap;html=1;" vertex="1" parent="1">
          <mxGeometry x="290" y="145" width="84" height="40" as="geometry" />
        </mxCell>
        <mxCell id="-9K4hsrEqOnpqYFPlQaA-13" value="calle" style="ellipse;whiteSpace=wrap;html=1;" vertex="1" parent="1">
          <mxGeometry x="-90" y="190" width="84" height="40" as="geometry" />
        </mxCell>
        <mxCell id="-9K4hsrEqOnpqYFPlQaA-14" value="numero de casa" style="ellipse;whiteSpace=wrap;html=1;" vertex="1" parent="1">
          <mxGeometry x="-80" y="240" width="84" height="40" as="geometry" />
        </mxCell>
        <mxCell id="-9K4hsrEqOnpqYFPlQaA-15" value="colonia" style="ellipse;whiteSpace=wrap;html=1;" vertex="1" parent="1">
          <mxGeometry x="-34" y="290" width="84" height="40" as="geometry" />
        </mxCell>
        <mxCell id="-9K4hsrEqOnpqYFPlQaA-16" value="saldo" style="ellipse;whiteSpace=wrap;html=1;" vertex="1" parent="1">
          <mxGeometry x="90" y="240" width="84" height="40" as="geometry" />
        </mxCell>
        <mxCell id="-9K4hsrEqOnpqYFPlQaA-17" value="numeroSerie" style="ellipse;whiteSpace=wrap;html=1;" vertex="1" parent="1">
          <mxGeometry x="700" y="50" width="84" height="40" as="geometry" />
        </mxCell>
        <mxCell id="-9K4hsrEqOnpqYFPlQaA-18" value="fila" style="ellipse;whiteSpace=wrap;html=1;" vertex="1" parent="1">
          <mxGeometry x="800" y="80" width="84" height="40" as="geometry" />
        </mxCell>
        <mxCell id="-9K4hsrEqOnpqYFPlQaA-19" value="asiento" style="ellipse;whiteSpace=wrap;html=1;" vertex="1" parent="1">
          <mxGeometry x="810" y="145" width="84" height="40" as="geometry" />
        </mxCell>
        <mxCell id="-9K4hsrEqOnpqYFPlQaA-20" value="numControl" style="ellipse;whiteSpace=wrap;html=1;" vertex="1" parent="1">
          <mxGeometry x="810" y="210" width="84" height="40" as="geometry" />
        </mxCell>
        <mxCell id="-9K4hsrEqOnpqYFPlQaA-22" value="&lt;u&gt;idBoleto&lt;/u&gt;" style="ellipse;whiteSpace=wrap;html=1;" vertex="1" parent="1">
          <mxGeometry x="600" y="60" width="84" height="40" as="geometry" />
        </mxCell>
        <mxCell id="-9K4hsrEqOnpqYFPlQaA-23" value="&lt;u&gt;idPersona&lt;/u&gt;" style="ellipse;whiteSpace=wrap;html=1;" vertex="1" parent="1">
          <mxGeometry x="280" y="30" width="84" height="40" as="geometry" />
        </mxCell>
      </root>
    </mxGraphModel>
  </diagram>
</mxfile>
